<svg width="64" height="64" viewBox="0 0 64 64" fill="none" xmlns="http://www.w3.org/2000/svg">
  <!-- 배경 그라데이션 -->
  <defs>
    <linearGradient id="oceanGradient" x1="0%" y1="0%" x2="100%" y2="100%">
      <stop offset="0%" style="stop-color:#0EA5E9;stop-opacity:1" />
      <stop offset="100%" style="stop-color:#0284C7;stop-opacity:1" />
    </linearGradient>
  </defs>
  
  <!-- 원형 배경 -->
  <circle cx="32" cy="32" r="30" fill="url(#oceanGradient)"/>
  
  <!-- 물결 패턴 -->
  <path d="M 12 28 Q 18 24 24 28 Q 30 32 36 28 Q 42 24 48 28 Q 54 32 60 28" 
        stroke="white" stroke-width="3" fill="none" stroke-linecap="round" opacity="0.8"/>
  
  <path d="M 8 36 Q 14 32 20 36 Q 26 40 32 36 Q 38 32 44 36 Q 50 40 56 36" 
        stroke="white" stroke-width="3" fill="none" stroke-linecap="round" opacity="0.6"/>
  
  <path d="M 10 44 Q 16 40 22 44 Q 28 48 34 44 Q 40 40 46 44 Q 52 48 58 44" 
        stroke="white" stroke-width="2.5" fill="none" stroke-linecap="round" opacity="0.4"/>
  
  <!-- 작은 원 포인트 -->
  <circle cx="32" cy="20" r="4" fill="white" opacity="0.9"/>
</svg>
